<svg version="1.1" xmlns="http://www.w3.org/2000/svg" viewBox="0 0 246.98765491655428 251.1968529454649" width="246.98765491655428" height="251.1968529454649" class="excalidraw-svg"><!-- svg-source:excalidraw --><metadata></metadata><defs><style class="style-fonts">
      </style></defs><g stroke-linecap="round"><g transform="translate(10.723295110151582 128.0695781289098) rotate(0.754530180053239 113.13708498984761 9.947598300641403e-14)" fill-rule="evenodd"><path d="M0 0 L113.14 -113.14 L141.42 -84.85 L127.28 -70.71 L113.14 -80 L33.14 0 L113.14 80 L193.14 0 L183.85 -14.14 L197.99 -28.28 L226.27 0 L113.14 113.14 L0 0" stroke="none" stroke-width="0" fill="#a3ffff" fill-rule="evenodd"></path><path d="M0 0 C40.43 -40.43, 80.86 -80.86, 113.14 -113.14 M0 0 C31.45 -31.45, 62.9 -62.9, 113.14 -113.14 M113.14 -113.14 C119.36 -106.92, 125.58 -100.7, 141.42 -84.85 M113.14 -113.14 C121.42 -104.86, 129.7 -96.58, 141.42 -84.85 M141.42 -84.85 C136.69 -80.12, 131.96 -75.39, 127.28 -70.71 M141.42 -84.85 C136.92 -80.35, 132.42 -75.85, 127.28 -70.71 M127.28 -70.71 C123.39 -73.27, 119.5 -75.82, 113.14 -80 M127.28 -70.71 C121.81 -74.3, 116.34 -77.89, 113.14 -80 M113.14 -80 C95.06 -61.92, 76.98 -43.85, 33.14 0 M113.14 -80 C88.26 -55.12, 63.38 -30.25, 33.14 0 M33.14 0 C59.08 25.94, 85.02 51.88, 113.14 80 M33.14 0 C56.68 23.54, 80.21 47.08, 113.14 80 M113.14 80 C137.1 56.04, 161.07 32.07, 193.14 0 M113.14 80 C132.26 60.88, 151.38 41.75, 193.14 0 M193.14 0 C191.14 -3.04, 189.15 -6.07, 183.85 -14.14 M193.14 0 C189.82 -5.05, 186.51 -10.09, 183.85 -14.14 M183.85 -14.14 C188.18 -18.48, 192.52 -22.81, 197.99 -28.28 M183.85 -14.14 C187.77 -18.07, 191.7 -21.99, 197.99 -28.28 M197.99 -28.28 C207.22 -19.05, 216.45 -9.82, 226.27 0 M197.99 -28.28 C205.3 -20.98, 212.61 -13.67, 226.27 0 M226.27 0 C183.19 43.09, 140.1 86.17, 113.14 113.14 M226.27 0 C193.04 33.24, 159.8 66.47, 113.14 113.14 M113.14 113.14 C82.35 82.35, 51.56 51.56, 0 0 M113.14 113.14 C76.42 76.42, 39.71 39.71, 0 0 M0 0 C0 0, 0 0, 0 0 M0 0 C0 0, 0 0, 0 0" stroke="#a3ffff" stroke-width="4" fill="none"></path></g></g><mask></mask><g stroke-linecap="round"><g transform="translate(125.27133565861931 128.6228744222925) rotate(0.754530180053239 50 -50)" fill-rule="evenodd"><path d="M0 0 L20 0 L100 -80 L80 -100 L0 -20 L0 0" stroke="none" stroke-width="0" fill="#a3ffff" fill-rule="evenodd"></path><path d="M0 0 C6.27 0, 12.53 0, 20 0 M0 0 C7.39 0, 14.78 0, 20 0 M20 0 C43.97 -23.97, 67.93 -47.93, 100 -80 M20 0 C50.46 -30.46, 80.93 -60.93, 100 -80 M100 -80 C94.94 -85.06, 89.89 -90.11, 80 -100 M100 -80 C92.97 -87.03, 85.94 -94.06, 80 -100 M80 -100 C48.75 -68.75, 17.49 -37.49, 0 -20 M80 -100 C48.8 -68.8, 17.6 -37.6, 0 -20 M0 -20 C0 -12.47, 0 -4.95, 0 0 M0 -20 C0 -15.97, 0 -11.95, 0 0 M0 0 C0 0, 0 0, 0 0 M0 0 C0 0, 0 0, 0 0" stroke="#a3ffff" stroke-width="4" fill="none"></path></g></g><mask></mask><g stroke-linecap="round"><g transform="translate(9.990189826707478 123.12727481655492) rotate(0.754530180053239 113.13708498984761 1.1368683772161603e-13)" fill-rule="evenodd"><path d="M0 0 L113.14 -113.14 L141.42 -84.85 L127.28 -70.71 L113.14 -80 L33.14 0 L113.14 80 L193.14 0 L183.85 -14.14 L197.99 -28.28 L226.27 0 L113.14 113.14 L0 0" stroke="none" stroke-width="0" fill="#354141" fill-rule="evenodd"></path><path d="M0 0 C37.22 -37.22, 74.43 -74.43, 113.14 -113.14 M0 0 C41.02 -41.02, 82.03 -82.03, 113.14 -113.14 M113.14 -113.14 C119.25 -107.03, 125.36 -100.92, 141.42 -84.85 M113.14 -113.14 C120.72 -105.55, 128.31 -97.97, 141.42 -84.85 M141.42 -84.85 C136.1 -79.54, 130.79 -74.22, 127.28 -70.71 M141.42 -84.85 C136.59 -80.02, 131.76 -75.2, 127.28 -70.71 M127.28 -70.71 C121.87 -74.27, 116.45 -77.82, 113.14 -80 M127.28 -70.71 C122.28 -73.99, 117.28 -77.28, 113.14 -80 M113.14 -80 C87.4 -54.26, 61.65 -28.52, 33.14 0 M113.14 -80 C86.22 -53.09, 59.31 -26.17, 33.14 0 M33.14 0 C56.76 23.63, 80.39 47.25, 113.14 80 M33.14 0 C63.26 30.12, 93.38 60.24, 113.14 80 M113.14 80 C139.51 53.62, 165.89 27.25, 193.14 0 M113.14 80 C129.81 63.32, 146.49 46.65, 193.14 0 M193.14 0 C190.53 -3.97, 187.92 -7.95, 183.85 -14.14 M193.14 0 C191.2 -2.95, 189.26 -5.91, 183.85 -14.14 M183.85 -14.14 C188.67 -18.97, 193.5 -23.79, 197.99 -28.28 M183.85 -14.14 C189.37 -19.66, 194.89 -25.18, 197.99 -28.28 M197.99 -28.28 C207.75 -18.52, 217.52 -8.76, 226.27 0 M197.99 -28.28 C209.14 -17.13, 220.3 -5.98, 226.27 0 M226.27 0 C195.05 31.22, 163.83 62.45, 113.14 113.14 M226.27 0 C193.87 32.41, 161.46 64.81, 113.14 113.14 M113.14 113.14 C71.08 71.08, 29.03 29.03, 0 0 M113.14 113.14 C73.71 73.71, 34.27 34.27, 0 0 M0 0 C0 0, 0 0, 0 0 M0 0 C0 0, 0 0, 0 0" stroke="#354141" stroke-width="4" fill="none"></path></g></g><mask></mask><g stroke-linecap="round"><g transform="translate(124.5382303751752 123.68057110993766) rotate(0.754530180053239 50 -50)" fill-rule="evenodd"><path d="M0 0 L20 0 L100 -80 L80 -100 L0 -20 L0 0" stroke="none" stroke-width="0" fill="#354141" fill-rule="evenodd"></path><path d="M0 0 C4.25 0, 8.5 0, 20 0 M0 0 C7.48 0, 14.96 0, 20 0 M20 0 C41.37 -21.37, 62.74 -42.74, 100 -80 M20 0 C51.54 -31.54, 83.08 -63.08, 100 -80 M100 -80 C92.98 -87.02, 85.96 -94.04, 80 -100 M100 -80 C95.8 -84.2, 91.61 -88.39, 80 -100 M80 -100 C63.48 -83.48, 46.97 -66.97, 0 -20 M80 -100 C49.9 -69.9, 19.81 -39.81, 0 -20 M0 -20 C0 -13.38, 0 -6.76, 0 0 M0 -20 C0 -12.67, 0 -5.35, 0 0 M0 0 C0 0, 0 0, 0 0 M0 0 C0 0, 0 0, 0 0" stroke="#354141" stroke-width="4" fill="none"></path></g></g><mask></mask></svg>